<svg width="53" height="53" viewBox="0 0 53 53" fill="none" xmlns="http://www.w3.org/2000/svg">
<path d="M35.3333 4.41663L30.2542 9.49579C29.0403 10.7342 28.3604 12.3992 28.3604 14.1333C28.3604 15.8674 29.0403 17.5324 30.2542 18.7708L34.2292 22.7458C35.4676 23.9597 37.1325 24.6396 38.8667 24.6396C40.6008 24.6396 42.2658 23.9597 43.5042 22.7458L48.5833 17.6666" stroke="white" stroke-width="2" stroke-linecap="round" stroke-linejoin="round"/>
<path d="M33.125 33.125L7.28751 7.28748C6.40613 8.15105 5.70592 9.18182 5.2279 10.3194C4.74988 11.457 4.50366 12.6785 4.50366 13.9125C4.50366 15.1464 4.74988 16.368 5.2279 17.5055C5.70592 18.6431 6.40613 19.6739 7.28751 20.5375L23.4083 36.6583C24.9542 38.2042 27.825 38.2042 29.5917 36.6583L33.125 33.125ZM33.125 33.125L48.5833 48.5833" stroke="white" stroke-width="2" stroke-linecap="round" stroke-linejoin="round"/>
<path d="M4.63751 48.1417L18.7708 34.2292" stroke="white" stroke-width="2" stroke-linecap="round" stroke-linejoin="round"/>
<path d="M41.9583 11.0416L26.5 26.5" stroke="white" stroke-width="2" stroke-linecap="round" stroke-linejoin="round"/>
</svg>
